<svg id="visual" viewBox="0 0 960 540" width="960" height="540" xmlns="http://www.w3.org/2000/svg" xmlns:xlink="http://www.w3.org/1999/xlink" version="1.1"><path d="M0 136L26.7 137.8C53.3 139.7 106.7 143.3 160 137C213.3 130.7 266.7 114.3 320 101.7C373.3 89 426.7 80 480 79.2C533.3 78.3 586.7 85.7 640 91.2C693.3 96.7 746.7 100.3 800 96.7C853.3 93 906.7 82 933.3 76.5L960 71L960 0L933.3 0C906.7 0 853.3 0 800 0C746.7 0 693.3 0 640 0C586.7 0 533.3 0 480 0C426.7 0 373.3 0 320 0C266.7 0 213.3 0 160 0C106.7 0 53.3 0 26.7 0L0 0Z" fill="#2f2f2f"></path><path d="M0 174L26.7 176.7C53.3 179.3 106.7 184.7 160 177.5C213.3 170.3 266.7 150.7 320 134.5C373.3 118.3 426.7 105.7 480 102C533.3 98.3 586.7 103.7 640 111.7C693.3 119.7 746.7 130.3 800 126.7C853.3 123 906.7 105 933.3 96L960 87L960 69L933.3 74.5C906.7 80 853.3 91 800 94.7C746.7 98.3 693.3 94.7 640 89.2C586.7 83.7 533.3 76.3 480 77.2C426.7 78 373.3 87 320 99.7C266.7 112.3 213.3 128.7 160 135C106.7 141.3 53.3 137.7 26.7 135.8L0 134Z" fill="#373737"></path><path d="M0 201L26.7 202.8C53.3 204.7 106.7 208.3 160 202C213.3 195.7 266.7 179.3 320 166.7C373.3 154 426.7 145 480 144.2C533.3 143.3 586.7 150.7 640 159.7C693.3 168.7 746.7 179.3 800 173C853.3 166.7 906.7 143.3 933.3 131.7L960 120L960 85L933.3 94C906.7 103 853.3 121 800 124.7C746.7 128.3 693.3 117.7 640 109.7C586.7 101.7 533.3 96.3 480 100C426.7 103.7 373.3 116.3 320 132.5C266.7 148.7 213.3 168.3 160 175.5C106.7 182.7 53.3 177.3 26.7 174.7L0 172Z" fill="#3e3e3e"></path><path d="M0 249L26.7 247.3C53.3 245.7 106.7 242.3 160 235.2C213.3 228 266.7 217 320 211.5C373.3 206 426.7 206 480 207.8C533.3 209.7 586.7 213.3 640 218.8C693.3 224.3 746.7 231.7 800 220.8C853.3 210 906.7 181 933.3 166.5L960 152L960 118L933.3 129.7C906.7 141.3 853.3 164.7 800 171C746.7 177.3 693.3 166.7 640 157.7C586.7 148.7 533.3 141.3 480 142.2C426.7 143 373.3 152 320 164.7C266.7 177.3 213.3 193.7 160 200C106.7 206.3 53.3 202.7 26.7 200.8L0 199Z" fill="#4d4d4d"></path><path d="M0 282L26.7 278.3C53.3 274.7 106.7 267.3 160 260.2C213.3 253 266.7 246 320 241.5C373.3 237 426.7 235 480 236.7C533.3 238.3 586.7 243.7 640 248.2C693.3 252.7 746.7 256.3 800 242.8C853.3 229.3 906.7 198.7 933.3 183.3L960 168L960 150L933.3 164.5C906.7 179 853.3 208 800 218.8C746.7 229.7 693.3 222.3 640 216.8C586.7 211.3 533.3 207.7 480 205.8C426.7 204 373.3 204 320 209.5C266.7 215 213.3 226 160 233.2C106.7 240.3 53.3 243.7 26.7 245.3L0 247Z" fill="#5d5d5d"></path><path d="M0 347L26.7 343.3C53.3 339.7 106.7 332.3 160 324.2C213.3 316 266.7 307 320 301.7C373.3 296.3 426.7 294.7 480 300C533.3 305.3 586.7 317.7 640 320.3C693.3 323 746.7 316 800 302.5C853.3 289 906.7 269 933.3 259L960 249L960 166L933.3 181.3C906.7 196.7 853.3 227.3 800 240.8C746.7 254.3 693.3 250.7 640 246.2C586.7 241.7 533.3 236.3 480 234.7C426.7 233 373.3 235 320 239.5C266.7 244 213.3 251 160 258.2C106.7 265.3 53.3 272.7 26.7 276.3L0 280Z" fill="#646464"></path><path d="M0 357L26.7 356.2C53.3 355.3 106.7 353.7 160 346.5C213.3 339.3 266.7 326.7 320 318.5C373.3 310.3 426.7 306.7 480 313.8C533.3 321 586.7 339 640 341.8C693.3 344.7 746.7 332.3 800 318C853.3 303.7 906.7 287.3 933.3 279.2L960 271L960 247L933.3 257C906.7 267 853.3 287 800 300.5C746.7 314 693.3 321 640 318.3C586.7 315.7 533.3 303.3 480 298C426.7 292.7 373.3 294.3 320 299.7C266.7 305 213.3 314 160 322.2C106.7 330.3 53.3 337.7 26.7 341.3L0 345Z" fill="#646464"></path><path d="M0 384L26.7 382.3C53.3 380.7 106.7 377.3 160 371.2C213.3 365 266.7 356 320 349.7C373.3 343.3 426.7 339.7 480 344.2C533.3 348.7 586.7 361.3 640 362.2C693.3 363 746.7 352 800 339.3C853.3 326.7 906.7 312.3 933.3 305.2L960 298L960 269L933.3 277.2C906.7 285.3 853.3 301.7 800 316C746.7 330.3 693.3 342.7 640 339.8C586.7 337 533.3 319 480 311.8C426.7 304.7 373.3 308.3 320 316.5C266.7 324.7 213.3 337.3 160 344.5C106.7 351.7 53.3 353.3 26.7 354.2L0 355Z" fill="#5d5d5d"></path><path d="M0 411L26.7 411C53.3 411 106.7 411 160 405.7C213.3 400.3 266.7 389.7 320 382.5C373.3 375.3 426.7 371.7 480 374.3C533.3 377 586.7 386 640 389.7C693.3 393.3 746.7 391.7 800 380.8C853.3 370 906.7 350 933.3 340L960 330L960 296L933.3 303.2C906.7 310.3 853.3 324.7 800 337.3C746.7 350 693.3 361 640 360.2C586.7 359.3 533.3 346.7 480 342.2C426.7 337.7 373.3 341.3 320 347.7C266.7 354 213.3 363 160 369.2C106.7 375.3 53.3 378.7 26.7 380.3L0 382Z" fill="#4d4d4d"></path><path d="M0 498L26.7 497C53.3 496 106.7 494 160 494C213.3 494 266.7 496 320 496C373.3 496 426.7 494 480 494C533.3 494 586.7 496 640 494.3C693.3 492.7 746.7 487.3 800 484.7C853.3 482 906.7 482 933.3 482L960 482L960 328L933.3 338C906.7 348 853.3 368 800 378.8C746.7 389.7 693.3 391.3 640 387.7C586.7 384 533.3 375 480 372.3C426.7 369.7 373.3 373.3 320 380.5C266.7 387.7 213.3 398.3 160 403.7C106.7 409 53.3 409 26.7 409L0 409Z" fill="#3e3e3e"></path><path d="M0 525L26.7 525.8C53.3 526.7 106.7 528.3 160 528.3C213.3 528.3 266.7 526.7 320 525.8C373.3 525 426.7 525 480 525.8C533.3 526.7 586.7 528.3 640 526.5C693.3 524.7 746.7 519.3 800 516.7C853.3 514 906.7 514 933.3 514L960 514L960 480L933.3 480C906.7 480 853.3 480 800 482.7C746.7 485.3 693.3 490.7 640 492.3C586.7 494 533.3 492 480 492C426.7 492 373.3 494 320 494C266.7 494 213.3 492 160 492C106.7 492 53.3 494 26.7 495L0 496Z" fill="#373737"></path><path d="M0 541L26.7 541C53.3 541 106.7 541 160 541C213.3 541 266.7 541 320 541C373.3 541 426.7 541 480 541C533.3 541 586.7 541 640 541C693.3 541 746.7 541 800 541C853.3 541 906.7 541 933.3 541L960 541L960 512L933.3 512C906.7 512 853.3 512 800 514.7C746.7 517.3 693.3 522.7 640 524.5C586.7 526.3 533.3 524.7 480 523.8C426.7 523 373.3 523 320 523.8C266.7 524.7 213.3 526.3 160 526.3C106.7 526.3 53.3 524.7 26.7 523.8L0 523Z" fill="#2f2f2f"></path></svg>