<svg id="visual" viewBox="0 0 300 1000" width="300" height="1000" xmlns="http://www.w3.org/2000/svg" xmlns:xlink="http://www.w3.org/1999/xlink" version="1.1"><rect width="300" height="1000" fill="#303030"></rect><g><g transform="translate(116 743)"><path d="M18.3 -23.7C22.1 -18.7 22.4 -11.3 22.2 -5C22 1.3 21.4 6.6 19.2 11.7C17 16.7 13.3 21.4 7.7 25.1C2.2 28.7 -5 31.3 -10.5 29.2C-16 27 -19.6 20.2 -22.1 13.8C-24.6 7.3 -26 1.3 -25.4 -4.9C-24.8 -11 -22.2 -17.2 -17.7 -22.1C-13.1 -26.9 -6.6 -30.3 0.4 -30.8C7.3 -31.2 14.6 -28.6 18.3 -23.7Z" fill="#808080"></path></g><g transform="translate(174 929)"><path d="M11.1 -13.7C13.8 -10.9 15.1 -6.9 16.7 -2.3C18.3 2.3 20.2 7.5 18.4 10.7C16.6 13.8 11.2 14.9 6.4 16.1C1.5 17.3 -2.8 18.5 -6.8 17.6C-10.8 16.6 -14.4 13.5 -17.4 9.5C-20.5 5.4 -23 0.5 -22.2 -3.9C-21.5 -8.3 -17.4 -12.2 -13.2 -14.7C-8.9 -17.3 -4.5 -18.6 -0.2 -18.4C4.2 -18.2 8.3 -16.6 11.1 -13.7Z" fill="#808080"></path></g><g transform="translate(229 348)"><path d="M7.8 -9.5C9.8 -7.7 10.7 -4.9 10.8 -2.2C10.9 0.4 10.1 2.9 8.9 5.2C7.6 7.5 5.9 9.6 3.7 10.5C1.5 11.5 -1.3 11.3 -3.9 10.5C-6.5 9.6 -9 8.1 -10 6C-10.9 3.8 -10.4 1 -9.8 -1.5C-9.1 -4.1 -8.3 -6.5 -6.6 -8.4C-5 -10.3 -2.5 -11.8 0.2 -12C2.9 -12.3 5.9 -11.4 7.8 -9.5Z" fill="#808080"></path></g><g transform="translate(208 732)"><path d="M6.1 -7.2C7.5 -6 8.1 -3.8 8.9 -1.3C9.7 1.3 10.8 4 9.9 5.8C9 7.6 6.2 8.4 3.4 9.4C0.7 10.3 -1.9 11.4 -3.9 10.7C-5.8 10 -7.1 7.4 -7.9 5C-8.7 2.6 -9.2 0.5 -8.8 -1.5C-8.4 -3.5 -7.2 -5.4 -5.6 -6.6C-4 -7.8 -2 -8.4 0.1 -8.5C2.3 -8.7 4.6 -8.5 6.1 -7.2Z" fill="#808080"></path></g><g transform="translate(280 834)"><path d="M7.6 -8.5C10.4 -6.8 13.4 -4.8 14.6 -2C15.8 0.9 15.1 4.6 13.3 7.5C11.4 10.4 8.4 12.5 5.3 12.8C2.3 13.2 -0.8 11.8 -3.5 10.5C-6.2 9.1 -8.6 7.7 -10.2 5.6C-11.7 3.5 -12.4 0.6 -12.1 -2.3C-11.8 -5.2 -10.5 -8.1 -8.4 -9.9C-6.2 -11.6 -3.1 -12.3 -0.3 -11.9C2.4 -11.5 4.9 -10.1 7.6 -8.5Z" fill="#808080"></path></g><g transform="translate(271 548)"><path d="M11.4 -14C14.9 -10.6 18 -7.2 19.8 -2.7C21.6 1.8 22.1 7.4 20.1 12.4C18.2 17.3 13.8 21.6 9 22.4C4.2 23.1 -1.1 20.3 -5.4 17.6C-9.7 14.8 -12.9 12.1 -15.8 8.5C-18.6 4.9 -20.9 0.4 -20.3 -3.7C-19.7 -7.7 -16.2 -11.4 -12.3 -14.7C-8.4 -18.1 -4.2 -21.1 -0.1 -20.9C3.9 -20.7 7.8 -17.4 11.4 -14Z" fill="#808080"></path></g><g transform="translate(43 178)"><path d="M14.4 -17.2C19.6 -12.7 25.5 -9.1 27.9 -3.7C30.4 1.8 29.4 9.1 25.4 13.5C21.4 17.9 14.6 19.5 8.5 20.3C2.5 21.2 -2.6 21.2 -6.9 19.5C-11.2 17.7 -14.6 14.1 -17.1 9.8C-19.6 5.6 -21.2 0.8 -21.3 -4.6C-21.3 -10 -19.9 -16 -16.1 -20.7C-12.3 -25.5 -6.2 -28.9 -0.8 -27.9C4.6 -27 9.1 -21.7 14.4 -17.2Z" fill="#808080"></path></g><g transform="translate(89 78)"><path d="M16.5 -19C21.7 -15.4 26.2 -10.4 26.6 -5.1C27 0.1 23.3 5.7 19.6 10.5C15.8 15.2 12.1 19.2 7.7 20.6C3.2 22.1 -2 20.9 -6.8 19C-11.5 17.1 -15.8 14.4 -20 10.1C-24.2 5.9 -28.3 0.1 -27.8 -5.2C-27.2 -10.5 -22.1 -15.3 -16.7 -18.9C-11.3 -22.5 -5.6 -24.9 0 -24.9C5.7 -24.9 11.4 -22.7 16.5 -19Z" fill="#808080"></path></g><g transform="translate(160 284)"><path d="M9.5 -11.8C11.7 -9.5 12.5 -5.9 12.6 -2.7C12.6 0.6 11.9 3.5 10.6 6.3C9.2 9 7.1 11.5 4.5 12.5C1.9 13.5 -1.3 12.9 -4 11.6C-6.6 10.3 -8.7 8.3 -10 5.9C-11.3 3.4 -11.8 0.6 -11.3 -2C-10.8 -4.6 -9.3 -7 -7.3 -9.3C-5.2 -11.7 -2.6 -14 0.5 -14.6C3.7 -15.2 7.3 -14.1 9.5 -11.8Z" fill="#808080"></path></g><g transform="translate(202 17)"><path d="M16.1 -19.6C19.5 -16.5 19.7 -10 19.6 -4.3C19.5 1.3 19.2 6.1 17.1 10C15 13.8 11.1 16.8 6.7 18.4C2.3 20 -2.5 20.2 -7.6 19.1C-12.6 18 -17.8 15.6 -20.1 11.6C-22.5 7.5 -22.1 1.9 -20.4 -2.8C-18.6 -7.5 -15.5 -11.1 -11.9 -14.1C-8.2 -17.2 -4.1 -19.6 1.2 -21C6.4 -22.4 12.8 -22.7 16.1 -19.6Z" fill="#808080"></path></g><g transform="translate(76 546)"><path d="M8.1 -8.8C10.4 -7.7 12.1 -5.1 12.6 -2.2C13 0.6 12.3 3.7 10.6 5.7C8.9 7.7 6.2 8.7 3.7 9.2C1.2 9.7 -1.2 9.7 -3.7 9.2C-6.2 8.7 -8.8 7.6 -10.2 5.7C-11.5 3.7 -11.6 0.8 -11.1 -1.9C-10.6 -4.6 -9.4 -7.2 -7.4 -8.3C-5.4 -9.5 -2.7 -9.2 0.1 -9.3C2.9 -9.4 5.8 -9.9 8.1 -8.8Z" fill="#808080"></path></g><g transform="translate(3 632)"><path d="M6.2 -7.3C7.9 -6 9 -3.9 9.4 -1.7C9.7 0.5 9.4 2.9 8.4 5.1C7.4 7.3 5.8 9.4 3.7 10.2C1.6 11 -1 10.5 -3.2 9.4C-5.3 8.3 -7 6.7 -8 4.7C-9 2.8 -9.4 0.5 -8.9 -1.5C-8.4 -3.4 -7.1 -5.2 -5.5 -6.5C-3.9 -7.8 -1.9 -8.8 0.2 -9C2.3 -9.2 4.5 -8.7 6.2 -7.3Z" fill="#808080"></path></g><g transform="translate(296 133)"><path d="M1.9 -2.4C2.4 -1.9 2.6 -1.2 2.8 -0.4C3 0.3 3.2 1.1 2.9 1.7C2.6 2.3 1.8 2.6 1.1 2.8C0.3 2.9 -0.4 3 -1.1 2.8C-1.7 2.6 -2.4 2.2 -2.8 1.6C-3.2 1 -3.3 0.2 -3.2 -0.5C-3 -1.2 -2.5 -1.8 -1.9 -2.3C-1.3 -2.8 -0.7 -3.3 0 -3.3C0.7 -3.3 1.5 -3 1.9 -2.4Z" fill="#808080"></path></g><g transform="translate(91 920)"><path d="M19.4 -21.9C24.5 -18.8 27.5 -12.1 28.8 -5.1C30.1 2 29.6 9.4 26.1 14.8C22.6 20.1 16.2 23.4 9.3 26.1C2.5 28.8 -4.7 30.8 -9.6 28.3C-14.5 25.7 -17.1 18.5 -19 12.3C-21 6.2 -22.4 1 -22.4 -4.8C-22.5 -10.6 -21.1 -17.1 -17.1 -20.4C-13.2 -23.7 -6.6 -23.9 0.3 -24.2C7.1 -24.5 14.3 -25 19.4 -21.9Z" fill="#808080"></path></g><g transform="translate(190 183)"><path d="M7.9 -8.7C10.6 -7 13.6 -5 14.8 -2.1C16 0.9 15.3 4.7 13.3 7.2C11.3 9.7 7.9 11 4.5 12.2C1.1 13.4 -2.3 14.4 -5.3 13.7C-8.3 12.9 -10.9 10.4 -12.2 7.4C-13.5 4.4 -13.4 1 -12.8 -2.2C-12.2 -5.5 -11 -8.6 -8.8 -10.4C-6.6 -12.2 -3.3 -12.6 -0.4 -12.1C2.5 -11.7 5.1 -10.4 7.9 -8.7Z" fill="#808080"></path></g><g transform="translate(197 630)"><path d="M18.8 -24.1C22.8 -19.1 23.4 -11.6 23.5 -5C23.5 1.6 23.2 7.4 20.8 12.4C18.4 17.5 13.9 21.8 8.8 23.1C3.7 24.5 -2 22.9 -7.5 20.8C-12.9 18.7 -18.1 16 -21.2 11.7C-24.4 7.4 -25.7 1.3 -25.1 -4.9C-24.6 -11.1 -22.3 -17.5 -17.8 -22.4C-13.4 -27.3 -6.7 -30.7 0.4 -31.1C7.4 -31.6 14.8 -29 18.8 -24.1Z" fill="#808080"></path></g><g transform="translate(60 445)"><path d="M4.9 -6.1C6.4 -4.7 7.5 -3.1 8.4 -1C9.2 1 9.9 3.5 9 5.4C8.2 7.3 5.9 8.5 3.6 8.8C1.4 9.2 -0.7 8.5 -2.8 7.8C-4.9 7 -7 6.1 -7.9 4.6C-8.7 3 -8.4 0.8 -8.3 -1.7C-8.1 -4.2 -8.1 -6.9 -6.7 -8.3C-5.4 -9.7 -2.7 -9.8 -0.5 -9.2C1.7 -8.6 3.5 -7.4 4.9 -6.1Z" fill="#808080"></path></g><g transform="translate(57 274)"><path d="M4.8 -6C5.8 -4.8 6 -3 5.9 -1.4C5.8 0.2 5.5 1.6 4.9 3.1C4.4 4.7 3.7 6.4 2.3 7.3C1 8.2 -1 8.2 -2.6 7.5C-4.2 6.8 -5.4 5.3 -5.9 3.7C-6.4 2.2 -6.3 0.6 -6.1 -1.2C-6 -3 -5.9 -4.9 -4.8 -6C-3.8 -7.2 -1.9 -7.5 0 -7.5C1.9 -7.5 3.7 -7.1 4.8 -6Z" fill="#808080"></path></g><g transform="translate(183 498)"><path d="M2 -2.3C2.4 -2 2.5 -1.2 2.7 -0.4C2.8 0.3 3.1 1.1 2.8 1.7C2.6 2.3 1.8 2.6 1.1 2.8C0.3 3 -0.4 3 -1.1 2.9C-1.9 2.7 -2.6 2.3 -2.9 1.7C-3.2 1.1 -3.1 0.3 -2.9 -0.4C-2.6 -1.1 -2.2 -1.6 -1.7 -2C-1.2 -2.3 -0.6 -2.5 0.1 -2.6C0.8 -2.7 1.5 -2.7 2 -2.3Z" fill="#808080"></path></g><g transform="translate(162 802)"><path d="M5.9 -7C7.3 -5.8 7.9 -3.7 8.2 -1.5C8.6 0.7 8.7 2.9 7.8 4.4C6.8 5.9 4.8 6.7 2.7 7.6C0.6 8.4 -1.6 9.4 -3.5 9C-5.5 8.6 -7.2 6.9 -8.4 4.8C-9.6 2.8 -10.3 0.4 -10 -1.8C-9.7 -4.1 -8.4 -6.4 -6.6 -7.5C-4.8 -8.6 -2.4 -8.7 -0.1 -8.6C2.2 -8.5 4.5 -8.3 5.9 -7Z" fill="#808080"></path></g><g transform="translate(247 986)"><path d="M4.8 -5.6C6.2 -4.6 7.2 -3 7.5 -1.3C7.9 0.4 7.5 2.3 6.6 3.8C5.7 5.4 4.3 6.7 2.7 7.3C1 8 -0.9 7.9 -2.9 7.4C-4.8 6.9 -6.8 6 -8 4.4C-9.1 2.8 -9.5 0.5 -9.2 -1.6C-8.8 -3.8 -7.7 -5.9 -6.1 -6.9C-4.5 -7.9 -2.2 -7.8 -0.3 -7.5C1.7 -7.2 3.4 -6.7 4.8 -5.6Z" fill="#808080"></path></g><g transform="translate(22 799)"><path d="M4.2 -5C5.4 -4.1 6.1 -2.7 6.2 -1.2C6.3 0.2 5.8 1.6 5 2.7C4.1 3.7 3 4.3 1.7 5C0.3 5.7 -1.1 6.4 -2.5 6.2C-3.9 6 -5.1 4.8 -5.5 3.5C-5.9 2.1 -5.5 0.6 -5.1 -0.8C-4.7 -2.2 -4.4 -3.5 -3.5 -4.5C-2.7 -5.4 -1.3 -6 0.1 -6.1C1.6 -6.3 3.1 -5.9 4.2 -5Z" fill="#808080"></path></g><g transform="translate(295 643)"><path d="M5 -6.1C6.5 -4.7 7.8 -3.2 8.2 -1.4C8.6 0.4 8.1 2.4 7.1 3.9C6 5.5 4.4 6.5 2.6 7.2C0.8 7.9 -1.2 8.3 -2.9 7.7C-4.5 7.2 -5.9 5.7 -7 3.9C-8.1 2.2 -9 0.2 -8.5 -1.3C-8 -2.9 -6.2 -4 -4.5 -5.4C-2.9 -6.7 -1.4 -8.2 0.2 -8.4C1.8 -8.6 3.5 -7.4 5 -6.1Z" fill="#808080"></path></g><g transform="translate(270 222)"><path d="M11.3 -13.2C14.2 -11.1 15.6 -7.1 16.1 -3.1C16.5 0.9 15.9 4.9 14 8C12.1 11 8.8 13.2 5.2 14.9C1.5 16.5 -2.7 17.7 -6 16.5C-9.2 15.2 -11.6 11.7 -13.2 8.1C-14.8 4.4 -15.6 0.8 -15.2 -2.8C-14.8 -6.5 -13.1 -10 -10.3 -12.2C-7.6 -14.3 -3.8 -14.9 0.2 -15.2C4.2 -15.4 8.5 -15.3 11.3 -13.2Z" fill="#808080"></path></g><g transform="translate(76 622)"><path d="M7 -7.7C9.2 -6.6 11.1 -4.4 11.4 -2.1C11.7 0.2 10.5 2.8 8.9 4.7C7.3 6.7 5.4 8.1 3.2 8.9C1.1 9.6 -1.2 9.8 -3.7 9.3C-6.1 8.8 -8.7 7.6 -10.3 5.6C-11.9 3.5 -12.6 0.6 -11.8 -1.8C-11.1 -4.2 -8.9 -6.1 -6.6 -7.1C-4.4 -8.2 -2.2 -8.5 0.1 -8.6C2.4 -8.8 4.9 -8.7 7 -7.7Z" fill="#808080"></path></g><g transform="translate(35 715)"><path d="M12 -14.1C16.2 -10.9 20.5 -7.6 21.6 -3.5C22.6 0.6 20.4 5.5 17.7 10.3C15.1 15.2 12 19.8 7.5 22.1C3 24.5 -3 24.5 -7.7 22.2C-12.4 20 -15.8 15.6 -18.2 10.8C-20.7 6 -22.1 0.9 -20.7 -3.1C-19.3 -7.1 -15.1 -10 -11.2 -13.3C-7.3 -16.5 -3.6 -20 0.2 -20.2C3.9 -20.4 7.9 -17.3 12 -14.1Z" fill="#808080"></path></g><g transform="translate(99 345)"><path d="M8.5 -9.2C11.6 -7.6 14.9 -5.4 15.6 -2.6C16.2 0.2 14.1 3.5 11.9 6.4C9.7 9.2 7.3 11.5 4.3 13.2C1.2 15 -2.6 16.3 -5.6 15.3C-8.7 14.3 -10.9 10.9 -12 7.6C-13.1 4.3 -13 1 -12.2 -1.9C-11.4 -4.8 -9.9 -7.4 -7.7 -9.2C-5.6 -10.9 -2.8 -11.9 0 -11.9C2.7 -11.9 5.5 -10.9 8.5 -9.2Z" fill="#808080"></path></g><g transform="translate(38 26)"><path d="M7.8 -8.7C10.2 -7.2 12.4 -4.9 13.3 -2.1C14.1 0.8 13.5 4.1 11.7 6.5C10 8.9 7.1 10.3 4.2 11.2C1.3 12.2 -1.8 12.6 -4.2 11.7C-6.6 10.7 -8.5 8.4 -9.7 5.8C-10.9 3.3 -11.5 0.6 -10.8 -1.7C-10.1 -3.9 -8.3 -5.8 -6.3 -7.3C-4.3 -8.9 -2.1 -10.1 0.3 -10.4C2.7 -10.8 5.3 -10.2 7.8 -8.7Z" fill="#808080"></path></g><g transform="translate(139 994)"><path d="M7.3 -8.6C9.4 -6.9 11.1 -4.6 11.8 -1.9C12.4 0.7 12 3.7 10.8 6.7C9.6 9.7 7.7 12.7 4.8 14.1C2 15.5 -1.7 15.2 -4.4 13.6C-7.1 12 -8.8 9 -10.1 6.2C-11.3 3.3 -12 0.5 -11.7 -2.1C-11.3 -4.8 -9.7 -7.3 -7.6 -9C-5.5 -10.7 -2.7 -11.7 -0.1 -11.6C2.6 -11.5 5.1 -10.3 7.3 -8.6Z" fill="#808080"></path></g><g transform="translate(298 40)"><path d="M6.9 -7.9C8.8 -6.6 10.1 -4.3 10.8 -1.7C11.5 0.9 11.6 3.9 10.5 6.4C9.4 8.8 7.1 10.9 4.6 11.2C2.1 11.5 -0.5 10.1 -3.3 9C-6 8 -8.8 7.4 -10.1 5.6C-11.4 3.8 -11.1 1 -10.3 -1.5C-9.5 -3.9 -8.1 -5.9 -6.3 -7.2C-4.4 -8.4 -2.2 -8.9 0.1 -9.1C2.5 -9.2 5 -9.1 6.9 -7.9Z" fill="#808080"></path></g><g transform="translate(2 522)"><path d="M1.9 -2.5C2.3 -1.9 2.4 -1.2 2.4 -0.5C2.5 0.2 2.4 0.8 2.2 1.5C2 2.1 1.7 2.9 1.1 3.2C0.5 3.5 -0.3 3.3 -1 3C-1.7 2.7 -2.3 2.2 -2.6 1.5C-2.9 0.9 -3 0.2 -2.8 -0.4C-2.6 -1.1 -2.2 -1.6 -1.7 -2.2C-1.2 -2.7 -0.6 -3.4 0.1 -3.4C0.7 -3.5 1.5 -3.1 1.9 -2.5Z" fill="#808080"></path></g><g transform="translate(30 996)"><path d="M11.7 -13.1C15.5 -10.7 19.1 -7.4 20.2 -3.3C21.3 0.9 19.9 5.7 17.5 10.3C15.1 14.9 11.8 19.2 7.5 20.8C3.2 22.4 -2.1 21.4 -6.5 19.2C-10.9 17 -14.3 13.6 -16.4 9.7C-18.5 5.7 -19.1 1.1 -18.6 -3.5C-18.1 -8.2 -16.5 -12.9 -13.2 -15.4C-9.9 -17.9 -4.9 -18.2 -0.5 -17.6C3.9 -17 7.9 -15.5 11.7 -13.1Z" fill="#808080"></path></g><g transform="translate(142 434)"><path d="M12.9 -15.2C16.6 -12.4 19.2 -8.1 20.2 -3.4C21.1 1.2 20.4 6.3 17.9 10.1C15.4 13.8 11.1 16.3 6.9 17C2.7 17.6 -1.4 16.4 -5.4 14.9C-9.3 13.4 -13.1 11.6 -14.8 8.6C-16.5 5.6 -16 1.4 -15 -2.4C-14 -6.2 -12.5 -9.7 -9.9 -12.6C-7.3 -15.6 -3.7 -18.1 0.5 -18.7C4.6 -19.3 9.3 -17.9 12.9 -15.2Z" fill="#808080"></path></g><g transform="translate(225 117)"><path d="M2 -2.3C2.6 -1.8 3.3 -1.2 3.4 -0.6C3.5 0.1 3.1 0.8 2.7 1.5C2.2 2.2 1.7 2.8 1.1 3C0.5 3.3 -0.3 3.1 -0.9 2.8C-1.5 2.4 -1.9 1.9 -2.3 1.3C-2.6 0.7 -2.9 0.1 -2.8 -0.5C-2.7 -1.1 -2.2 -1.5 -1.7 -2.1C-1.1 -2.6 -0.6 -3.2 0 -3.2C0.7 -3.3 1.3 -2.8 2 -2.3Z" fill="#808080"></path></g><g transform="translate(299 387)"><path d="M18.5 -20.4C23.5 -17.7 27 -11.6 27.1 -5.6C27.2 0.4 24 6.2 20.2 10.5C16.3 14.8 11.9 17.6 7.1 19.4C2.2 21.1 -3 21.7 -8 20.6C-13.1 19.4 -18.1 16.4 -21.6 11.8C-25.1 7.2 -27.2 1 -26.5 -4.9C-25.7 -10.8 -22.1 -16.5 -17.3 -19.2C-12.4 -21.9 -6.2 -21.6 0.2 -21.9C6.7 -22.2 13.4 -23.1 18.5 -20.4Z" fill="#808080"></path></g><g transform="translate(287 473)"><path d="M12.8 -14.6C17.1 -11.5 21.7 -8.1 22.9 -3.7C24.1 0.7 21.8 6 18.8 10.6C15.8 15.1 12 18.9 7.3 21C2.5 23.2 -3.1 23.8 -7.2 21.5C-11.3 19.3 -13.7 14.3 -16.2 9.6C-18.6 4.8 -21.2 0.3 -20.5 -3.6C-19.8 -7.6 -16 -11 -12 -14.2C-8.1 -17.3 -4 -20.1 0.1 -20.2C4.2 -20.3 8.4 -17.6 12.8 -14.6Z" fill="#808080"></path></g><g transform="translate(248 899)"><path d="M3.5 -4.4C4.4 -3.4 5.1 -2.2 5.4 -0.9C5.7 0.4 5.6 1.8 5.1 3.1C4.5 4.4 3.5 5.5 2.2 5.9C0.9 6.4 -0.6 6 -1.7 5.3C-2.9 4.7 -3.7 3.6 -4.5 2.5C-5.2 1.3 -5.9 0.1 -5.8 -1.1C-5.7 -2.3 -4.8 -3.5 -3.7 -4.5C-2.6 -5.5 -1.3 -6.4 0 -6.3C1.3 -6.3 2.5 -5.4 3.5 -4.4Z" fill="#808080"></path></g><g transform="translate(292 300)"><path d="M3.8 -5C4.8 -3.7 5.5 -2.4 6 -0.9C6.4 0.6 6.7 2.3 6 3.5C5.4 4.7 3.8 5.4 2.2 6C0.6 6.6 -1.1 7.1 -2.9 6.9C-4.7 6.7 -6.6 5.8 -7.4 4.3C-8.3 2.8 -8 0.7 -7.5 -1.2C-7 -3.1 -6.3 -4.8 -5 -6.2C-3.7 -7.5 -1.8 -8.4 -0.2 -8.1C1.4 -7.8 2.8 -6.4 3.8 -5Z" fill="#808080"></path></g><g transform="translate(5 112)"><path d="M18.6 -22.6C22.7 -18.7 23.6 -11.5 24.8 -4.4C26.1 2.7 27.7 9.8 25.5 15.7C23.3 21.7 17.3 26.5 10.9 28C4.4 29.5 -2.5 27.7 -8.1 24.6C-13.6 21.5 -17.8 17.1 -20.9 12C-24 6.8 -26 1 -24.9 -4.3C-23.9 -9.6 -19.8 -14.2 -15.2 -18C-10.5 -21.7 -5.3 -24.7 1 -25.9C7.3 -27 14.5 -26.5 18.6 -22.6Z" fill="#808080"></path></g><g transform="translate(125 13)"><path d="M17.2 -18.8C21.8 -16.5 24.9 -10.7 25.1 -5.1C25.3 0.5 22.6 6 19.4 11C16.3 16.1 12.8 20.7 8.1 22.6C3.4 24.5 -2.5 23.7 -7.6 21.6C-12.8 19.4 -17.3 16 -20.4 11.4C-23.5 6.8 -25.3 1 -24.6 -4.6C-24 -10.3 -20.9 -15.8 -16.4 -18.1C-11.9 -20.5 -5.9 -19.7 0.1 -19.9C6.2 -20 12.5 -21.2 17.2 -18.8Z" fill="#808080"></path></g><g transform="translate(8 884)"><path d="M11.3 -13.4C14.6 -10.7 17.1 -7.1 17.5 -3.3C18 0.5 16.4 4.5 13.9 7.4C11.5 10.3 8.3 12 4.8 13.4C1.3 14.7 -2.3 15.6 -5.9 14.9C-9.5 14.2 -12.9 11.8 -14.5 8.6C-16.1 5.4 -15.8 1.3 -14.6 -2.1C-13.4 -5.5 -11.4 -8.3 -8.8 -11C-6.2 -13.8 -3.1 -16.6 0.5 -17.1C4 -17.7 8 -16 11.3 -13.4Z" fill="#808080"></path></g><g transform="translate(7 395)"><path d="M14.1 -17.1C18.1 -13.4 21.1 -8.8 21.7 -4C22.3 0.8 20.5 5.8 17.6 9.5C14.7 13.3 10.7 15.8 6.2 17.7C1.7 19.6 -3.2 21 -7.8 20C-12.4 18.9 -16.5 15.5 -19.4 11C-22.2 6.5 -23.7 1 -22.3 -3.4C-20.9 -7.8 -16.6 -11.2 -12.4 -14.8C-8.2 -18.4 -4.1 -22.2 0.5 -22.8C5 -23.4 10.1 -20.7 14.1 -17.1Z" fill="#808080"></path></g><g transform="translate(288 723)"><path d="M13.7 -16.3C18.1 -12.6 22.3 -8.6 23.3 -3.9C24.4 0.8 22.4 6.3 19.3 10.6C16.2 15 12 18.2 7.4 19.5C2.8 20.8 -2.1 20.1 -7.3 18.8C-12.4 17.4 -17.8 15.4 -20.5 11.5C-23.3 7.5 -23.4 1.7 -21.8 -3.3C-20.2 -8.2 -17 -12.3 -13.1 -16.1C-9.1 -19.9 -4.6 -23.4 0 -23.4C4.6 -23.5 9.3 -20 13.7 -16.3Z" fill="#808080"></path></g><g transform="translate(88 839)"><path d="M13.4 -16.3C17.3 -12.6 20.4 -8.4 21.9 -3.3C23.4 1.7 23.4 7.6 21.1 12.8C18.8 18 14.3 22.5 8.8 24.8C3.2 27.1 -3.4 27.3 -9 25.1C-14.6 22.9 -19.3 18.4 -22.2 13C-25 7.6 -26 1.4 -24.7 -4C-23.3 -9.5 -19.6 -14.2 -15.1 -17.7C-10.6 -21.3 -5.3 -23.7 -0.3 -23.3C4.7 -23 9.5 -20 13.4 -16.3Z" fill="#808080"></path></g><g transform="translate(125 214)"><path d="M8.8 -10.1C11.4 -8.4 13.3 -5.5 13.5 -2.7C13.6 0.2 12 3.1 10.1 5.4C8.2 7.7 6.1 9.4 3.7 10.3C1.3 11.2 -1.4 11.3 -3.9 10.5C-6.4 9.7 -8.7 8 -9.7 5.8C-10.8 3.6 -10.7 0.9 -10.3 -1.9C-9.9 -4.7 -9.3 -7.5 -7.5 -9.3C-5.8 -11.1 -2.9 -11.9 0.1 -12.1C3.1 -12.2 6.3 -11.7 8.8 -10.1Z" fill="#808080"></path></g><g transform="translate(143 578)"><path d="M4.2 -4.7C5.7 -3.9 7.1 -2.7 7.5 -1.2C7.9 0.2 7.2 2 6.1 3.2C5.1 4.5 3.6 5.2 2.1 5.8C0.6 6.3 -1 6.7 -2.5 6.4C-4.1 6.1 -5.5 5.1 -6.3 3.7C-7.2 2.2 -7.4 0.4 -6.8 -1C-6.3 -2.4 -5 -3.4 -3.7 -4.3C-2.5 -5.2 -1.2 -5.9 0.1 -6C1.4 -6.1 2.8 -5.6 4.2 -4.7Z" fill="#808080"></path></g><g transform="translate(216 421)"><path d="M4.6 -5.4C5.8 -4.4 6.5 -2.9 7.2 -0.9C8 1 8.7 3.2 8 4.6C7.2 5.9 4.8 6.4 2.6 7.1C0.5 7.9 -1.6 8.9 -3.1 8.4C-4.6 7.9 -5.7 5.9 -6.3 4C-6.9 2.1 -7.2 0.4 -6.9 -1.2C-6.6 -2.9 -5.9 -4.5 -4.6 -5.5C-3.4 -6.5 -1.7 -6.9 0 -6.9C1.7 -6.9 3.4 -6.4 4.6 -5.4Z" fill="#808080"></path></g><g transform="translate(134 672)"><path d="M15.5 -19.1C19.3 -15.3 21 -9.6 21.5 -4.2C21.9 1.2 21.1 6.5 18.8 11.2C16.5 15.9 12.7 20.2 8.3 21C3.8 21.9 -1.2 19.5 -6.2 17.4C-11.1 15.4 -16.1 13.8 -19.3 10.2C-22.6 6.6 -24.2 1 -22.7 -3.4C-21.2 -7.8 -16.6 -11.1 -12.3 -14.8C-8 -18.5 -4 -22.7 0.9 -23.8C5.8 -24.9 11.7 -22.9 15.5 -19.1Z" fill="#808080"></path></g></g></svg>